M48
;DRILL file {KiCad 5.0.0-fee4fd1~66~ubuntu16.04.1} date Thu Nov  1 22:38:53 2018
;FORMAT={-:-/ absolute / metric / decimal}
FMAT,2
METRIC,TZ
T1C0.400
T2C0.800
T3C1.000
T4C3.200
%
G90
G05
M71
T1
X22.Y-77.7
X28.9Y-83.7
X31.8Y-83.7
X32.4Y-54.
X36.8Y-79.9
X36.8Y-87.9
X37.7Y-91.1
X39.5Y-83.9
X42.2Y-79.9
X42.2Y-87.8
X44.5Y-28.7
X65.Y-33.3
X65.Y-43.6
X67.5Y-76.9
X70.1Y-86.1
X70.1Y-90.7
X71.5Y-99.2
X74.1Y-99.1
X76.9Y-76.9
T2
X33.5Y-26.7
X33.5Y-29.24
X33.5Y-31.78
X33.5Y-34.32
X33.5Y-36.86
X33.5Y-39.4
X33.5Y-41.94
X33.5Y-44.48
X33.5Y-47.02
X33.5Y-49.56
X41.12Y-26.7
X41.12Y-29.24
X41.12Y-31.78
X41.12Y-34.32
X41.12Y-36.86
X41.12Y-39.4
X41.12Y-41.94
X41.12Y-44.48
X41.12Y-47.02
X41.12Y-49.56
X64.Y-104.08
X64.Y-111.7
X66.54Y-104.08
X66.54Y-111.7
X69.08Y-104.08
X69.08Y-111.7
X71.62Y-104.08
X71.62Y-111.7
X74.16Y-104.08
X74.16Y-111.7
X76.7Y-104.08
X76.7Y-111.7
X79.24Y-104.08
X79.24Y-111.7
X81.78Y-104.08
X81.78Y-111.7
X84.32Y-104.08
X84.32Y-111.7
X98.5Y-109.7
X98.5Y-112.24
X98.5Y-114.78
X98.5Y-117.32
X106.12Y-109.7
X106.12Y-112.24
X106.12Y-114.78
X106.12Y-117.32
X51.5Y-26.7
X51.5Y-29.24
X51.5Y-31.78
X51.5Y-34.32
X51.5Y-36.86
X51.5Y-39.4
X51.5Y-41.94
X51.5Y-44.48
X51.5Y-47.02
X51.5Y-49.56
X59.12Y-26.7
X59.12Y-29.24
X59.12Y-31.78
X59.12Y-34.32
X59.12Y-36.86
X59.12Y-39.4
X59.12Y-41.94
X59.12Y-44.48
X59.12Y-47.02
X59.12Y-49.56
X81.Y-44.58
X81.Y-52.2
X83.54Y-44.58
X83.54Y-52.2
X86.08Y-44.58
X86.08Y-52.2
X88.62Y-44.58
X88.62Y-52.2
X91.16Y-44.58
X91.16Y-52.2
X93.7Y-44.58
X93.7Y-52.2
X96.24Y-44.58
X96.24Y-52.2
X98.78Y-44.58
X98.78Y-52.2
X101.32Y-44.58
X101.32Y-52.2
X103.86Y-44.58
X103.86Y-52.2
X32.5Y-58.46
X32.5Y-73.7
X35.04Y-58.46
X35.04Y-73.7
X37.58Y-58.46
X37.58Y-73.7
X40.12Y-58.46
X40.12Y-73.7
X42.66Y-58.46
X42.66Y-73.7
X45.2Y-58.46
X45.2Y-73.7
X47.74Y-58.46
X47.74Y-73.7
X50.28Y-58.46
X50.28Y-73.7
X52.82Y-58.46
X52.82Y-73.7
X55.36Y-58.46
X55.36Y-73.7
X57.9Y-58.46
X57.9Y-73.7
X60.44Y-58.46
X60.44Y-73.7
X62.98Y-58.46
X62.98Y-73.7
X65.52Y-58.46
X65.52Y-73.7
X68.06Y-58.46
X68.06Y-73.7
X70.6Y-58.46
X70.6Y-73.7
X73.14Y-58.46
X73.14Y-73.7
X75.68Y-58.46
X75.68Y-73.7
X78.22Y-58.46
X78.22Y-73.7
X80.76Y-58.46
X80.76Y-73.7
X71.Y-30.58
X71.Y-38.2
X73.54Y-30.58
X73.54Y-38.2
X76.08Y-30.58
X76.08Y-38.2
X78.62Y-30.58
X78.62Y-38.2
X81.16Y-30.58
X81.16Y-38.2
X83.7Y-30.58
X83.7Y-38.2
X86.24Y-30.58
X86.24Y-38.2
X88.78Y-30.58
X88.78Y-38.2
X91.32Y-30.58
X91.32Y-38.2
X93.86Y-30.58
X93.86Y-38.2
X96.4Y-30.58
X96.4Y-38.2
X98.94Y-30.58
X98.94Y-38.2
X101.48Y-30.58
X101.48Y-38.2
X104.02Y-30.58
X104.02Y-38.2
X40.54Y-92.
X40.54Y-99.62
X43.08Y-92.
X43.08Y-99.62
X45.62Y-92.
X45.62Y-99.62
X48.16Y-92.
X48.16Y-99.62
X50.7Y-92.
X50.7Y-99.62
X53.24Y-92.
X53.24Y-99.62
X55.78Y-92.
X55.78Y-99.62
X58.32Y-92.
X58.32Y-99.62
X60.86Y-92.
X60.86Y-99.62
X63.4Y-92.
X63.4Y-99.62
T3
X22.Y-81.2
X22.Y-83.74
X22.Y-86.28
X22.Y-88.82
X24.54Y-81.2
X24.54Y-83.74
X24.54Y-86.28
X24.54Y-88.82
X22.Y-33.6
X22.Y-36.14
X22.Y-38.68
X22.Y-41.22
X22.Y-44.7
X22.Y-47.24
X22.Y-49.78
X22.Y-52.32
X22.Y-54.86
X22.Y-57.4
X22.Y-59.94
X22.Y-62.48
X116.5Y-33.7
X116.5Y-36.24
X116.5Y-38.78
X37.32Y-109.
X38.705Y-111.84
X40.09Y-109.
X41.475Y-111.84
X42.86Y-109.
X44.245Y-111.84
X45.63Y-109.
X47.015Y-111.84
X48.4Y-109.
X116.55Y-108.1
X116.55Y-110.64
X22.Y-66.4
X22.Y-68.94
X22.Y-71.48
X22.Y-74.02
X74.7Y-86.3
X74.7Y-90.8
X81.2Y-86.3
X81.2Y-90.8
X116.5Y-44.5
X116.5Y-47.04
T4
X30.36Y-109.3
X55.36Y-109.3
T3
X28.4Y-95.5G85X28.4Y-97.5
G05
X30.4Y-101.2G85X32.4Y-101.2
G05
X34.4Y-95.5G85X34.4Y-97.5
G05
T0
M30
