G04 #@! TF.GenerationSoftware,KiCad,Pcbnew,5.0.0-fee4fd1~66~ubuntu16.04.1*
G04 #@! TF.CreationDate,2018-11-19T11:17:55+01:00*
G04 #@! TF.ProjectId,byggern,6279676765726E2E6B696361645F7063,rev?*
G04 #@! TF.SameCoordinates,Original*
G04 #@! TF.FileFunction,Soldermask,Bot*
G04 #@! TF.FilePolarity,Negative*
%FSLAX46Y46*%
G04 Gerber Fmt 4.6, Leading zero omitted, Abs format (unit mm)*
G04 Created by KiCad (PCBNEW 5.0.0-fee4fd1~66~ubuntu16.04.1) date Mon Nov 19 11:17:55 2018*
%MOMM*%
%LPD*%
G01*
G04 APERTURE LIST*
%ADD10R,2.000000X2.000000*%
%ADD11O,2.000000X2.000000*%
%ADD12C,2.000000*%
%ADD13C,4.400000*%
%ADD14R,3.900000X3.900000*%
%ADD15C,0.100000*%
%ADD16C,3.400000*%
%ADD17C,3.900000*%
%ADD18R,2.100000X2.100000*%
%ADD19O,2.100000X2.100000*%
%ADD20C,2.100000*%
G04 APERTURE END LIST*
D10*
G04 #@! TO.C,U3*
X51500000Y-26700000D03*
D11*
X59120000Y-49560000D03*
X51500000Y-29240000D03*
X59120000Y-47020000D03*
X51500000Y-31780000D03*
X59120000Y-44480000D03*
X51500000Y-34320000D03*
X59120000Y-41940000D03*
X51500000Y-36860000D03*
X59120000Y-39400000D03*
X51500000Y-39400000D03*
X59120000Y-36860000D03*
X51500000Y-41940000D03*
X59120000Y-34320000D03*
X51500000Y-44480000D03*
X59120000Y-31780000D03*
X51500000Y-47020000D03*
X59120000Y-29240000D03*
X51500000Y-49560000D03*
X59120000Y-26700000D03*
G04 #@! TD*
D10*
G04 #@! TO.C,J4*
X48400000Y-109000000D03*
D12*
X45630000Y-109000000D03*
X42860000Y-109000000D03*
X40090000Y-109000000D03*
X37320000Y-109000000D03*
X47015000Y-111840000D03*
X44245000Y-111840000D03*
X41475000Y-111840000D03*
X38705000Y-111840000D03*
D13*
X30360000Y-109300000D03*
X55360000Y-109300000D03*
G04 #@! TD*
D10*
G04 #@! TO.C,U2*
X32500000Y-73700000D03*
D11*
X80760000Y-58460000D03*
X35040000Y-73700000D03*
X78220000Y-58460000D03*
X37580000Y-73700000D03*
X75680000Y-58460000D03*
X40120000Y-73700000D03*
X73140000Y-58460000D03*
X42660000Y-73700000D03*
X70600000Y-58460000D03*
X45200000Y-73700000D03*
X68060000Y-58460000D03*
X47740000Y-73700000D03*
X65520000Y-58460000D03*
X50280000Y-73700000D03*
X62980000Y-58460000D03*
X52820000Y-73700000D03*
X60440000Y-58460000D03*
X55360000Y-73700000D03*
X57900000Y-58460000D03*
X57900000Y-73700000D03*
X55360000Y-58460000D03*
X60440000Y-73700000D03*
X52820000Y-58460000D03*
X62980000Y-73700000D03*
X50280000Y-58460000D03*
X65520000Y-73700000D03*
X47740000Y-58460000D03*
X68060000Y-73700000D03*
X45200000Y-58460000D03*
X70600000Y-73700000D03*
X42660000Y-58460000D03*
X73140000Y-73700000D03*
X40120000Y-58460000D03*
X75680000Y-73700000D03*
X37580000Y-58460000D03*
X78220000Y-73700000D03*
X35040000Y-58460000D03*
X80760000Y-73700000D03*
X32500000Y-58460000D03*
G04 #@! TD*
D10*
G04 #@! TO.C,U4*
X81000000Y-52200000D03*
D11*
X103860000Y-44580000D03*
X83540000Y-52200000D03*
X101320000Y-44580000D03*
X86080000Y-52200000D03*
X98780000Y-44580000D03*
X88620000Y-52200000D03*
X96240000Y-44580000D03*
X91160000Y-52200000D03*
X93700000Y-44580000D03*
X93700000Y-52200000D03*
X91160000Y-44580000D03*
X96240000Y-52200000D03*
X88620000Y-44580000D03*
X98780000Y-52200000D03*
X86080000Y-44580000D03*
X101320000Y-52200000D03*
X83540000Y-44580000D03*
X103860000Y-52200000D03*
X81000000Y-44580000D03*
G04 #@! TD*
D10*
G04 #@! TO.C,U5*
X64000000Y-111700000D03*
D11*
X84320000Y-104080000D03*
X66540000Y-111700000D03*
X81780000Y-104080000D03*
X69080000Y-111700000D03*
X79240000Y-104080000D03*
X71620000Y-111700000D03*
X76700000Y-104080000D03*
X74160000Y-111700000D03*
X74160000Y-104080000D03*
X76700000Y-111700000D03*
X71620000Y-104080000D03*
X79240000Y-111700000D03*
X69080000Y-104080000D03*
X81780000Y-111700000D03*
X66540000Y-104080000D03*
X84320000Y-111700000D03*
X64000000Y-104080000D03*
G04 #@! TD*
D10*
G04 #@! TO.C,U6*
X71000000Y-38200000D03*
D11*
X104020000Y-30580000D03*
X73540000Y-38200000D03*
X101480000Y-30580000D03*
X76080000Y-38200000D03*
X98940000Y-30580000D03*
X78620000Y-38200000D03*
X96400000Y-30580000D03*
X81160000Y-38200000D03*
X93860000Y-30580000D03*
X83700000Y-38200000D03*
X91320000Y-30580000D03*
X86240000Y-38200000D03*
X88780000Y-30580000D03*
X88780000Y-38200000D03*
X86240000Y-30580000D03*
X91320000Y-38200000D03*
X83700000Y-30580000D03*
X93860000Y-38200000D03*
X81160000Y-30580000D03*
X96400000Y-38200000D03*
X78620000Y-30580000D03*
X98940000Y-38200000D03*
X76080000Y-30580000D03*
X101480000Y-38200000D03*
X73540000Y-30580000D03*
X104020000Y-38200000D03*
X71000000Y-30580000D03*
G04 #@! TD*
G04 #@! TO.C,U8*
X41120000Y-26700000D03*
X33500000Y-49560000D03*
X41120000Y-29240000D03*
X33500000Y-47020000D03*
X41120000Y-31780000D03*
X33500000Y-44480000D03*
X41120000Y-34320000D03*
X33500000Y-41940000D03*
X41120000Y-36860000D03*
X33500000Y-39400000D03*
X41120000Y-39400000D03*
X33500000Y-36860000D03*
X41120000Y-41940000D03*
X33500000Y-34320000D03*
X41120000Y-44480000D03*
X33500000Y-31780000D03*
X41120000Y-47020000D03*
X33500000Y-29240000D03*
X41120000Y-49560000D03*
D10*
X33500000Y-26700000D03*
G04 #@! TD*
G04 #@! TO.C,U9*
X63400000Y-92000000D03*
D11*
X40540000Y-99620000D03*
X60860000Y-92000000D03*
X43080000Y-99620000D03*
X58320000Y-92000000D03*
X45620000Y-99620000D03*
X55780000Y-92000000D03*
X48160000Y-99620000D03*
X53240000Y-92000000D03*
X50700000Y-99620000D03*
X50700000Y-92000000D03*
X53240000Y-99620000D03*
X48160000Y-92000000D03*
X55780000Y-99620000D03*
X45620000Y-92000000D03*
X58320000Y-99620000D03*
X43080000Y-92000000D03*
X60860000Y-99620000D03*
X40540000Y-92000000D03*
X63400000Y-99620000D03*
G04 #@! TD*
D14*
G04 #@! TO.C,U10*
X34400000Y-96500000D03*
D15*
G36*
X29333315Y-94554093D02*
X29415827Y-94566333D01*
X29496742Y-94586601D01*
X29575281Y-94614702D01*
X29650687Y-94650367D01*
X29722235Y-94693251D01*
X29789234Y-94742941D01*
X29851041Y-94798959D01*
X29907059Y-94860766D01*
X29956749Y-94927765D01*
X29999633Y-94999313D01*
X30035298Y-95074719D01*
X30063399Y-95153258D01*
X30083667Y-95234173D01*
X30095907Y-95316685D01*
X30100000Y-95400000D01*
X30100000Y-97600000D01*
X30095907Y-97683315D01*
X30083667Y-97765827D01*
X30063399Y-97846742D01*
X30035298Y-97925281D01*
X29999633Y-98000687D01*
X29956749Y-98072235D01*
X29907059Y-98139234D01*
X29851041Y-98201041D01*
X29789234Y-98257059D01*
X29722235Y-98306749D01*
X29650687Y-98349633D01*
X29575281Y-98385298D01*
X29496742Y-98413399D01*
X29415827Y-98433667D01*
X29333315Y-98445907D01*
X29250000Y-98450000D01*
X27550000Y-98450000D01*
X27466685Y-98445907D01*
X27384173Y-98433667D01*
X27303258Y-98413399D01*
X27224719Y-98385298D01*
X27149313Y-98349633D01*
X27077765Y-98306749D01*
X27010766Y-98257059D01*
X26948959Y-98201041D01*
X26892941Y-98139234D01*
X26843251Y-98072235D01*
X26800367Y-98000687D01*
X26764702Y-97925281D01*
X26736601Y-97846742D01*
X26716333Y-97765827D01*
X26704093Y-97683315D01*
X26700000Y-97600000D01*
X26700000Y-95400000D01*
X26704093Y-95316685D01*
X26716333Y-95234173D01*
X26736601Y-95153258D01*
X26764702Y-95074719D01*
X26800367Y-94999313D01*
X26843251Y-94927765D01*
X26892941Y-94860766D01*
X26948959Y-94798959D01*
X27010766Y-94742941D01*
X27077765Y-94693251D01*
X27149313Y-94650367D01*
X27224719Y-94614702D01*
X27303258Y-94586601D01*
X27384173Y-94566333D01*
X27466685Y-94554093D01*
X27550000Y-94550000D01*
X29250000Y-94550000D01*
X29333315Y-94554093D01*
X29333315Y-94554093D01*
G37*
D16*
X28400000Y-96500000D03*
D15*
G36*
X32470567Y-99254695D02*
X32565213Y-99268734D01*
X32658028Y-99291983D01*
X32748116Y-99324217D01*
X32834612Y-99365127D01*
X32916681Y-99414317D01*
X32993533Y-99471315D01*
X33064429Y-99535571D01*
X33128685Y-99606467D01*
X33185683Y-99683319D01*
X33234873Y-99765388D01*
X33275783Y-99851884D01*
X33308017Y-99941972D01*
X33331266Y-100034787D01*
X33345305Y-100129433D01*
X33350000Y-100225000D01*
X33350000Y-102175000D01*
X33345305Y-102270567D01*
X33331266Y-102365213D01*
X33308017Y-102458028D01*
X33275783Y-102548116D01*
X33234873Y-102634612D01*
X33185683Y-102716681D01*
X33128685Y-102793533D01*
X33064429Y-102864429D01*
X32993533Y-102928685D01*
X32916681Y-102985683D01*
X32834612Y-103034873D01*
X32748116Y-103075783D01*
X32658028Y-103108017D01*
X32565213Y-103131266D01*
X32470567Y-103145305D01*
X32375000Y-103150000D01*
X30425000Y-103150000D01*
X30329433Y-103145305D01*
X30234787Y-103131266D01*
X30141972Y-103108017D01*
X30051884Y-103075783D01*
X29965388Y-103034873D01*
X29883319Y-102985683D01*
X29806467Y-102928685D01*
X29735571Y-102864429D01*
X29671315Y-102793533D01*
X29614317Y-102716681D01*
X29565127Y-102634612D01*
X29524217Y-102548116D01*
X29491983Y-102458028D01*
X29468734Y-102365213D01*
X29454695Y-102270567D01*
X29450000Y-102175000D01*
X29450000Y-100225000D01*
X29454695Y-100129433D01*
X29468734Y-100034787D01*
X29491983Y-99941972D01*
X29524217Y-99851884D01*
X29565127Y-99765388D01*
X29614317Y-99683319D01*
X29671315Y-99606467D01*
X29735571Y-99535571D01*
X29806467Y-99471315D01*
X29883319Y-99414317D01*
X29965388Y-99365127D01*
X30051884Y-99324217D01*
X30141972Y-99291983D01*
X30234787Y-99268734D01*
X30329433Y-99254695D01*
X30425000Y-99250000D01*
X32375000Y-99250000D01*
X32470567Y-99254695D01*
X32470567Y-99254695D01*
G37*
D17*
X31400000Y-101200000D03*
G04 #@! TD*
D18*
G04 #@! TO.C,J1*
X22000000Y-66400000D03*
D19*
X22000000Y-68940000D03*
X22000000Y-71480000D03*
X22000000Y-74020000D03*
G04 #@! TD*
D10*
G04 #@! TO.C,U7*
X98500000Y-109700000D03*
D11*
X106120000Y-117320000D03*
X98500000Y-112240000D03*
X106120000Y-114780000D03*
X98500000Y-114780000D03*
X106120000Y-112240000D03*
X98500000Y-117320000D03*
X106120000Y-109700000D03*
G04 #@! TD*
D20*
G04 #@! TO.C,S1*
X81200000Y-90800000D03*
X74700000Y-90800000D03*
X81200000Y-86300000D03*
X74700000Y-86300000D03*
G04 #@! TD*
D18*
G04 #@! TO.C,J2*
X22000000Y-44700000D03*
D19*
X22000000Y-47240000D03*
X22000000Y-49780000D03*
X22000000Y-52320000D03*
X22000000Y-54860000D03*
X22000000Y-57400000D03*
X22000000Y-59940000D03*
X22000000Y-62480000D03*
G04 #@! TD*
D18*
G04 #@! TO.C,J5*
X116500000Y-33700000D03*
D19*
X116500000Y-36240000D03*
X116500000Y-38780000D03*
G04 #@! TD*
D18*
G04 #@! TO.C,J6*
X22000000Y-81200000D03*
D19*
X24540000Y-81200000D03*
X22000000Y-83740000D03*
X24540000Y-83740000D03*
X22000000Y-86280000D03*
X24540000Y-86280000D03*
X22000000Y-88820000D03*
X24540000Y-88820000D03*
G04 #@! TD*
D16*
G04 #@! TO.C,MH3*
X115500000Y-116700000D03*
G04 #@! TD*
G04 #@! TO.C,MH4*
X115500000Y-24700000D03*
G04 #@! TD*
G04 #@! TO.C,MH2*
X23500000Y-116700000D03*
G04 #@! TD*
G04 #@! TO.C,MH1*
X23500000Y-24700000D03*
G04 #@! TD*
D18*
G04 #@! TO.C,J9*
X22000000Y-33600000D03*
D19*
X22000000Y-36140000D03*
X22000000Y-38680000D03*
X22000000Y-41220000D03*
G04 #@! TD*
D18*
G04 #@! TO.C,J7*
X116500000Y-44500000D03*
D19*
X116500000Y-47040000D03*
G04 #@! TD*
D18*
G04 #@! TO.C,J3*
X116550000Y-108100000D03*
D19*
X116550000Y-110640000D03*
G04 #@! TD*
M02*
